<svg width="33" height="33" viewBox="0 0 33 33" fill="none" xmlns="http://www.w3.org/2000/svg">
<path d="M27.5344 25.8103C27.5408 25.8006 27.5505 25.7909 27.5569 25.7812C29.6678 23.2708 30.9375 20.0353 30.9375 16.5C30.9375 12.9647 29.6678 9.7292 27.5602 7.21875C27.5537 7.20908 27.544 7.20264 27.5376 7.19297C27.5021 7.15107 27.4699 7.1124 27.4345 7.07373C27.4216 7.05762 27.4087 7.04473 27.3958 7.02861L27.2637 6.87715L27.2605 6.87393C27.2121 6.81914 27.1605 6.76436 27.1122 6.70957L27.109 6.70635C27.0059 6.59678 26.9027 6.48721 26.7964 6.38086L26.7932 6.37764L26.6385 6.22295L26.6288 6.21328C26.5805 6.16494 26.5321 6.11982 26.4838 6.07471C26.4677 6.05859 26.4516 6.04248 26.4322 6.02637C26.4 5.99414 26.3678 5.96514 26.3355 5.93613C26.3259 5.92646 26.313 5.9168 26.3033 5.90391C23.7316 3.51914 20.2866 2.0625 16.5 2.0625C12.7134 2.0625 9.26836 3.51914 6.69346 5.90391C6.68379 5.91357 6.6709 5.92324 6.66123 5.93613C6.629 5.96514 6.59678 5.99736 6.56455 6.02959C6.54844 6.0457 6.53232 6.06182 6.51299 6.07793C6.46465 6.12305 6.41631 6.17139 6.36797 6.2165L6.3583 6.22617L6.20361 6.38086L6.20039 6.38408C6.09404 6.49043 5.99092 6.6 5.88779 6.70957L5.88457 6.71279C5.83301 6.76758 5.78467 6.82236 5.73633 6.87715L5.73311 6.88037C5.68799 6.92871 5.64287 6.98027 5.60098 7.03184C5.58809 7.04795 5.5752 7.06084 5.5623 7.07695C5.52686 7.11563 5.49463 7.15752 5.45918 7.19619C5.45273 7.20586 5.44307 7.2123 5.43662 7.22197C3.33223 9.7292 2.0625 12.9647 2.0625 16.5C2.0625 20.0353 3.33223 23.2708 5.43984 25.7812C5.44629 25.7909 5.45596 25.8006 5.4624 25.8103L5.5623 25.9295C5.5752 25.9456 5.58809 25.9585 5.60098 25.9746L5.73311 26.1261C5.73311 26.1293 5.73633 26.1293 5.73633 26.1325C5.78467 26.1873 5.83301 26.2421 5.88457 26.2937L5.88779 26.2969C5.99092 26.4064 6.09404 26.516 6.19717 26.6224L6.20039 26.6256C6.25195 26.6771 6.30029 26.7287 6.35186 26.7771L6.36152 26.7867C6.46787 26.8931 6.57744 26.9962 6.68701 27.0961C9.26836 29.4809 12.7134 30.9375 16.5 30.9375C20.2866 30.9375 23.7316 29.4809 26.3065 27.0961C26.4163 26.9955 26.5238 26.8923 26.6288 26.7867L26.6385 26.7771C26.69 26.7255 26.7416 26.6771 26.7899 26.6256L26.7932 26.6224C26.8995 26.516 27.0026 26.4064 27.1025 26.2969L27.1058 26.2937C27.1541 26.2389 27.2057 26.1873 27.254 26.1325C27.254 26.1293 27.2572 26.1293 27.2572 26.1261C27.3023 26.0777 27.3475 26.0262 27.3894 25.9746C27.4022 25.9585 27.4151 25.9456 27.428 25.9295C27.4645 25.8906 27.4999 25.8509 27.5344 25.8103ZM27.6665 21.2147C27.2218 22.2653 26.6353 23.2386 25.9198 24.1216C25.1141 23.4252 24.2332 22.821 23.2934 22.3201C23.6672 20.8087 23.8992 19.149 23.9604 17.4023H28.585C28.4883 18.7204 28.1789 19.9998 27.6665 21.2147ZM28.585 15.5977H23.9604C23.8992 13.851 23.6672 12.1913 23.2934 10.6799C24.2376 10.1771 25.1174 9.57129 25.9198 8.87842C27.475 10.7926 28.4052 13.1379 28.585 15.5977ZM21.2147 5.3335C22.4941 5.8749 23.6575 6.62256 24.6823 7.56357C24.087 8.07048 23.4462 8.52141 22.7681 8.91064C22.2621 7.46045 21.6144 6.20039 20.8603 5.1917C20.9795 5.23682 21.0987 5.28516 21.2147 5.3335ZM18.295 27.9114C17.9985 28.1435 17.7021 28.3207 17.4023 28.4399V22.4619C18.6811 22.5511 19.9385 22.8359 21.131 23.3063C20.8635 24.099 20.5541 24.8306 20.1964 25.4912C19.6356 26.5354 18.9782 27.37 18.295 27.9114ZM20.1964 7.50879C20.5509 8.17266 20.8635 8.9042 21.131 9.69375C19.9385 10.1641 18.6811 10.4489 17.4023 10.5381V4.56328C17.6988 4.68252 17.9985 4.85654 18.295 5.0918C18.9782 5.62998 19.6356 6.46465 20.1964 7.50879ZM17.4023 20.654V17.4023H22.1558C22.1042 18.8268 21.927 20.2093 21.6305 21.5209L21.6208 21.5596C20.2684 21.0467 18.8461 20.7414 17.4023 20.654ZM17.4023 15.5977V12.346C18.8783 12.2558 20.2963 11.9432 21.6208 11.4404L21.6305 11.4791C21.927 12.7907 22.1042 14.17 22.1558 15.5977H17.4023ZM15.5977 17.4023V20.654C14.1217 20.7442 12.7037 21.0568 11.3792 21.5596L11.3695 21.5209C11.073 20.2093 10.8958 18.83 10.8442 17.4023H15.5977ZM10.8442 15.5977C10.8958 14.1732 11.073 12.7907 11.3695 11.4791L11.3792 11.4404C12.7037 11.9432 14.1185 12.2558 15.5977 12.346V15.5977H10.8442ZM15.5977 22.4619V28.4367C15.3012 28.3175 15.0015 28.1435 14.705 27.9082C14.0218 27.37 13.3611 26.5321 12.8004 25.488C12.4459 24.8241 12.1333 24.0926 11.8658 23.303C13.0646 22.8325 14.3118 22.5521 15.5977 22.4619ZM15.5977 10.5381C14.3189 10.4489 13.0615 10.1641 11.869 9.69375C12.1365 8.90098 12.4459 8.16943 12.8036 7.50879C13.3644 6.46465 14.0218 5.62676 14.7082 5.08857C15.0047 4.85654 15.3012 4.6793 15.6009 4.56006V10.5381H15.5977ZM11.7853 5.3335C11.9045 5.28516 12.0205 5.23682 12.1397 5.1917C11.3856 6.20039 10.7379 7.46045 10.2319 8.91064C9.55518 8.52393 8.91387 8.07275 8.31768 7.56357C9.34248 6.62256 10.5059 5.8749 11.7853 5.3335ZM5.3335 11.7853C5.77822 10.7347 6.36475 9.76143 7.08018 8.87842C7.88262 9.57129 8.7624 10.1771 9.70664 10.6799C9.33281 12.1913 9.10078 13.851 9.03955 15.5977H4.41504C4.51172 14.2796 4.82109 13.0002 5.3335 11.7853ZM4.41504 17.4023H9.03955C9.10078 19.149 9.33281 20.8087 9.70664 22.3201C8.76684 22.821 7.8859 23.4252 7.08018 24.1216C5.52502 22.2074 4.59476 19.8621 4.41504 17.4023ZM11.7853 27.6665C10.5059 27.1251 9.34248 26.3774 8.31768 25.4364C8.91387 24.9272 9.55518 24.4793 10.2319 24.0894C10.7379 25.5396 11.3856 26.7996 12.1397 27.8083C12.0205 27.7632 11.9013 27.7148 11.7853 27.6665ZM21.2147 27.6665C21.0955 27.7148 20.9795 27.7632 20.8603 27.8083C21.6144 26.7996 22.2621 25.5396 22.7681 24.0894C23.4448 24.4761 24.0861 24.9272 24.6823 25.4364C23.6632 26.3735 22.4902 27.1279 21.2147 27.6665Z" fill="#6366F1"/>
</svg>
