<svg width="48" height="48" viewBox="0 0 48 48" fill="none" xmlns="http://www.w3.org/2000/svg">
<path d="M16 7C16 6.20435 16.3161 5.44129 16.8787 4.87868C17.4413 4.31607 18.2044 4 19 4H29C29.7956 4 30.5587 4.31607 31.1213 4.87868C31.6839 5.44129 32 6.20435 32 7V9C32 9.79565 31.6839 10.5587 31.1213 11.1213C30.5587 11.6839 29.7956 12 29 12H19C18.2044 12 17.4413 11.6839 16.8787 11.1213C16.3161 10.5587 16 9.79565 16 9V7Z" fill="#6366F1"/>
<path fill-rule="evenodd" clip-rule="evenodd" d="M13 8.07397C10.484 8.21397 8.896 8.61397 7.758 9.75397C6 11.512 6 14.34 6 19.996V31.996C6 37.654 6 40.482 7.758 42.24C9.514 43.996 12.344 43.996 18 43.996H30C35.656 43.996 38.486 43.996 40.242 42.24C42 40.48 42 37.654 42 31.996V19.996C42 14.34 42 11.512 40.242 9.75397C39.104 8.61397 37.516 8.21397 35 8.07397V8.99997C35 10.5913 34.3679 12.1174 33.2426 13.2426C32.1174 14.3678 30.5913 15 29 15H19C17.4087 15 15.8826 14.3678 14.7574 13.2426C13.6321 12.1174 13 10.5913 13 8.99997V8.07397ZM12.5 21C12.5 20.6021 12.658 20.2206 12.9393 19.9393C13.2206 19.658 13.6022 19.5 14 19.5H34C34.3978 19.5 34.7794 19.658 35.0607 19.9393C35.342 20.2206 35.5 20.6021 35.5 21C35.5 21.3978 35.342 21.7793 35.0607 22.0606C34.7794 22.3419 34.3978 22.5 34 22.5H14C13.6022 22.5 13.2206 22.3419 12.9393 22.0606C12.658 21.7793 12.5 21.3978 12.5 21ZM14.5 28C14.5 27.6021 14.658 27.2206 14.9393 26.9393C15.2206 26.658 15.6022 26.5 16 26.5H32C32.3978 26.5 32.7794 26.658 33.0607 26.9393C33.342 27.2206 33.5 27.6021 33.5 28C33.5 28.3978 33.342 28.7793 33.0607 29.0606C32.7794 29.3419 32.3978 29.5 32 29.5H16C15.6022 29.5 15.2206 29.3419 14.9393 29.0606C14.658 28.7793 14.5 28.3978 14.5 28ZM16.5 35C16.5 34.6021 16.658 34.2206 16.9393 33.9393C17.2206 33.658 17.6022 33.5 18 33.5H30C30.3978 33.5 30.7794 33.658 31.0607 33.9393C31.342 34.2206 31.5 34.6021 31.5 35C31.5 35.3978 31.342 35.7793 31.0607 36.0606C30.7794 36.3419 30.3978 36.5 30 36.5H18C17.6022 36.5 17.2206 36.3419 16.9393 36.0606C16.658 35.7793 16.5 35.3978 16.5 35Z" fill="#6366F1"/>
</svg>
