<svg width="51" height="38" viewBox="0 0 51 38" fill="none" xmlns="http://www.w3.org/2000/svg">
<path fill-rule="evenodd" clip-rule="evenodd" d="M4.934 6H13.066C13.952 6 14.716 6 15.328 6.082C15.983 6.17 16.612 6.369 17.121 6.879C17.631 7.389 17.83 8.017 17.918 8.672C18 9.284 18 10.048 18 10.934V11.95C18 12.2152 17.8946 12.4696 17.7071 12.6571C17.5196 12.8446 17.2652 12.95 17 12.95C16.7348 12.95 16.4804 12.8446 16.2929 12.6571C16.1054 12.4696 16 12.2152 16 11.95V11C16 10.029 15.998 9.401 15.936 8.939C15.877 8.505 15.783 8.369 15.707 8.293C15.631 8.217 15.495 8.123 15.061 8.064C14.6 8.002 13.971 8 13 8H10V25C10 25.2652 9.89464 25.5196 9.70711 25.7071C9.51957 25.8946 9.26522 26 9 26C8.73478 26 8.48043 25.8946 8.29289 25.7071C8.10536 25.5196 8 25.2652 8 25V8H5C4.029 8 3.401 8.002 2.939 8.064C2.505 8.123 2.369 8.217 2.293 8.293C2.217 8.369 2.123 8.505 2.064 8.939C2.002 9.4 2 10.029 2 11V11.95C2 12.2152 1.89464 12.4696 1.70711 12.6571C1.51957 12.8446 1.26522 12.95 1 12.95C0.734784 12.95 0.48043 12.8446 0.292893 12.6571C0.105357 12.4696 0 12.2152 0 11.95V10.934C0 10.048 1.49012e-08 9.284 0.082 8.672C0.17 8.017 0.369 7.388 0.879 6.879C1.389 6.369 2.017 6.17 2.672 6.082C3.284 6 4.048 6 4.934 6Z" fill="black"/>
<path d="M6 25H16" stroke="black" stroke-width="2" stroke-linecap="round" stroke-linejoin="round"/>
<path fill-rule="evenodd" clip-rule="evenodd" d="M31 9C31 8.20435 31.3161 7.44129 31.8787 6.87868C32.4413 6.31607 33.2044 6 34 6H48C48.7956 6 49.5587 6.31607 50.1213 6.87868C50.6839 7.44129 51 8.20435 51 9V15.5C50.9999 15.5843 50.9892 15.6683 50.968 15.75C50.9892 15.8317 50.9999 15.9157 51 16V23C51 23.7956 50.6839 24.5587 50.1213 25.1213C49.5587 25.6839 48.7956 26 48 26H34C33.2044 26 32.4413 25.6839 31.8787 25.1213C31.3161 24.5587 31 23.7956 31 23V20C31.0001 19.9157 31.0108 19.8317 31.032 19.75C31.0108 19.6683 31.0001 19.5843 31 19.5V9ZM33.994 18.83C33.646 18.8367 33.3147 18.852 33 18.876V9C33 8.73478 33.1054 8.48043 33.2929 8.29289C33.4804 8.10536 33.7348 8 34 8H41H48C48.2652 8 48.5196 8.10536 48.7071 8.29289C48.8946 8.48043 49 8.73478 49 9V15.016C44.703 15.155 41.6 16.19 39.42 17.639C40.246 17.932 41.17 18.349 42.076 18.895C43.475 19.735 44.897 20.915 45.854 22.478C45.9226 22.59 45.9684 22.7144 45.9888 22.8442C46.0093 22.9739 46.004 23.1064 45.9733 23.2341C45.9425 23.3617 45.887 23.4821 45.8097 23.5883C45.7324 23.6945 45.635 23.7845 45.523 23.853C45.411 23.9216 45.2866 23.9674 45.1568 23.9878C45.0271 24.0083 44.8946 24.003 44.7669 23.9723C44.6393 23.9415 44.5189 23.886 44.4127 23.8087C44.3065 23.7314 44.2165 23.634 44.148 23.522C43.412 22.319 42.27 21.344 41.046 20.609C39.824 19.875 38.581 19.417 37.719 19.217C36.5047 18.94 35.2614 18.8104 34.016 18.831H33.994V18.83ZM35.978 10.488C36.4236 10.1737 36.9547 10.0034 37.5 10C37.91 10 38.503 10.115 39.022 10.488C39.592 10.898 40 11.574 40 12.5C40 13.426 39.592 14.101 39.022 14.511C38.5765 14.8256 38.0454 14.9963 37.5 15C37.09 15 36.497 14.885 35.978 14.511C35.408 14.101 35 13.427 35 12.5C35 11.574 35.408 10.899 35.978 10.488Z" fill="black"/>
<path d="M27.0748 15.5031L17 15.5031" stroke="#6366F1" stroke-width="2" stroke-linecap="round" stroke-linejoin="round"/>
<path d="M22.7778 11L27.1111 15.5L22.7778 20" stroke="#6366F1" stroke-width="2" stroke-linecap="round" stroke-linejoin="round"/>
<path d="M30 11L30 20" stroke="#6366F1" stroke-width="2" stroke-linecap="round" stroke-linejoin="round"/>
</svg>
