<svg width="35" height="35" viewBox="0 0 35 35" fill="none" xmlns="http://www.w3.org/2000/svg">
<path d="M10.9375 15.3125C10.9375 15.3125 12.1479 25.4188 12.3958 27.7084C12.6438 29.998 14.5833 30.625 16.0417 30.625H18.9583C21.1458 30.625 23.1583 28.9625 23.3333 27.7084C23.5229 26.4542 24.7917 10.2084 24.7917 10.2084" stroke="#6366F1" stroke-width="2" stroke-linecap="round" stroke-linejoin="round"/>
<path d="M11.6667 5.83333C13.2708 5.00208 14.5833 4.375 17.5 4.375C20.4167 4.375 24.0625 5.10417 24.0625 8.75" stroke="#6366F1" stroke-width="2" stroke-linecap="round" stroke-linejoin="round"/>
<mask id="mask0_2011_6" style="mask-type:luminance" maskUnits="userSpaceOnUse" x="7" y="7" width="21" height="7">
<path d="M7.29166 8.75003C7.29166 5.83337 10.2083 8.75003 16.7708 8.75003C23.3333 8.75003 27.7083 5.83337 27.7083 8.75003V10.2084C27.7083 12.3959 24.7917 13.125 18.2292 13.125C11.6667 13.125 7.29166 13.125 7.29166 10.2084V8.75003Z" fill="white"/>
</mask>
<g mask="url(#mask0_2011_6)">
<path d="M0 0H35V35H0V0Z" fill="#6366F1"/>
</g>
<mask id="mask1_2011_6" style="mask-type:luminance" maskUnits="userSpaceOnUse" x="13" y="16" width="9" height="13">
<path d="M14.7729 26.4688C14.6417 25.2147 13.7229 17.4709 13.7229 17.4709C13.7229 17.4709 16.5521 17.9522 18.2437 17.1063C19.9354 16.2751 21.8604 16.0417 21.8604 16.0417C21.8604 16.0417 21.0146 26.1917 20.9417 26.9209C20.8687 27.6501 19.6292 28.1459 18.9 28.1459H16.3917C15.6625 28.1459 14.9042 27.7084 14.7729 26.4688Z" fill="white"/>
</mask>
<g mask="url(#mask1_2011_6)">
<path d="M0 0H35V35H0V0Z" fill="#6366F1"/>
</g>
</svg>
