<svg width="38" height="38" viewBox="0 0 38 38" fill="none" xmlns="http://www.w3.org/2000/svg">
<path fill-rule="evenodd" clip-rule="evenodd" d="M34.4375 19L35.4231 18.506V18.5012L35.416 18.4941L35.4018 18.4656L35.3519 18.3706L35.1619 18.0286C34.93 17.6287 34.6837 17.2373 34.4233 16.8554C33.5543 15.5799 32.5554 14.3979 31.4426 13.3285C28.7684 10.7635 24.6525 8.14624 19 8.14624C13.3523 8.14624 9.23401 10.7611 6.55976 13.3285C5.44698 14.3979 4.44809 15.5799 3.57913 16.8554C3.22654 17.3756 2.89997 17.913 2.60063 18.4656L2.58638 18.4941L2.58163 18.5012V18.5036C2.58163 18.5036 2.57926 18.506 3.56488 19L2.57926 18.5036C2.50305 18.6576 2.46341 18.827 2.46341 18.9988C2.46341 19.1706 2.50305 19.34 2.57926 19.494L2.57688 19.4987L2.58401 19.5059L2.59826 19.5344C2.67231 19.6828 2.75153 19.8285 2.83576 19.9714C3.85843 21.699 5.10946 23.2807 6.55501 24.6739C9.23163 27.2389 13.3475 29.8514 19 29.8514C24.6501 29.8514 28.7684 27.2389 31.445 24.6715C32.5557 23.6008 33.5537 22.419 34.4233 21.1446C34.7563 20.6543 35.0661 20.1487 35.3519 19.6294L35.4018 19.5344L35.416 19.5059L35.4208 19.4987V19.4964C35.4208 19.4964 35.4231 19.494 34.4375 19ZM34.4375 19L35.4231 19.4964C35.4993 19.3424 35.539 19.173 35.539 19.0012C35.539 18.8294 35.4993 18.6599 35.4231 18.506L34.4375 19ZM18.8575 15.352C17.89 15.352 16.9621 15.7363 16.278 16.4205C15.5938 17.1046 15.2095 18.0325 15.2095 19C15.2095 19.9675 15.5938 20.8954 16.278 21.5795C16.9621 22.2636 17.89 22.648 18.8575 22.648C19.825 22.648 20.7529 22.2636 21.437 21.5795C22.1212 20.8954 22.5055 19.9675 22.5055 19C22.5055 18.0325 22.1212 17.1046 21.437 16.4205C20.7529 15.7363 19.825 15.352 18.8575 15.352ZM13.0103 19C13.0103 17.4479 13.6268 15.9595 14.7243 14.862C15.8217 13.7645 17.3102 13.148 18.8623 13.148C20.4143 13.148 21.9028 13.7645 23.0002 14.862C24.0977 15.9595 24.7143 17.4479 24.7143 19C24.7143 20.552 24.0977 22.0405 23.0002 23.138C21.9028 24.2354 20.4143 24.852 18.8623 24.852C17.3102 24.852 15.8217 24.2354 14.7243 23.138C13.6268 22.0405 13.0103 20.552 13.0103 19Z" fill="#6366F1"/>
</svg>
