<svg width="24" height="24" viewBox="0 0 24 24" fill="none" xmlns="http://www.w3.org/2000/svg">
<path d="M6 19.9999C5.45 19.9999 4.97933 19.8043 4.588 19.4129C4.19667 19.0216 4.00067 18.5506 4 17.9999V15.9999C4 15.7166 4.096 15.4793 4.288 15.2879C4.48 15.0966 4.71733 15.0006 5 14.9999C5.28267 14.9993 5.52033 15.0953 5.713 15.2879C5.90567 15.4806 6.00133 15.7179 6 15.9999V17.9999H18V15.9999C18 15.7166 18.096 15.4793 18.288 15.2879C18.48 15.0966 18.7173 15.0006 19 14.9999C19.2827 14.9993 19.5203 15.0953 19.713 15.2879C19.9057 15.4806 20.0013 15.7179 20 15.9999V17.9999C20 18.5499 19.8043 19.0209 19.413 19.4129C19.0217 19.8049 18.5507 20.0006 18 19.9999H6ZM11 7.84994L9.125 9.72494C8.925 9.92494 8.68767 10.0209 8.413 10.0129C8.13833 10.0049 7.90067 9.90061 7.7 9.69994C7.51667 9.49994 7.42067 9.26661 7.412 8.99994C7.40333 8.73328 7.49933 8.49994 7.7 8.29994L11.3 4.69994C11.4 4.59994 11.5083 4.52928 11.625 4.48794C11.7417 4.44661 11.8667 4.42561 12 4.42494C12.1333 4.42428 12.2583 4.44528 12.375 4.48794C12.4917 4.53061 12.6 4.60128 12.7 4.69994L16.3 8.29994C16.5 8.49994 16.596 8.73328 16.588 8.99994C16.58 9.26661 16.484 9.49994 16.3 9.69994C16.1 9.89994 15.8627 10.0043 15.588 10.0129C15.3133 10.0216 15.0757 9.92561 14.875 9.72494L13 7.84994V14.9999C13 15.2833 12.904 15.5209 12.712 15.7129C12.52 15.9049 12.2827 16.0006 12 15.9999C11.7173 15.9993 11.48 15.9033 11.288 15.7119C11.096 15.5206 11 15.2833 11 14.9999V7.84994Z" fill="#6366F1"/>
</svg>
