<svg width="39" height="39" viewBox="0 0 39 39" fill="none" xmlns="http://www.w3.org/2000/svg">
<path d="M14.1586 14.1586C14.4695 13.8466 14.625 13.4604 14.625 13C14.625 12.5396 14.469 12.1539 14.157 11.843C13.845 11.5321 13.4593 11.3761 13 11.375C12.5407 11.3739 12.155 11.5299 11.843 11.843C11.531 12.1561 11.375 12.5417 11.375 13C11.375 13.4583 11.531 13.8445 11.843 14.1586C12.155 14.4728 12.5407 14.6283 13 14.625C13.4593 14.6217 13.8455 14.4657 14.1586 14.157M14.1586 20.657C14.4695 20.3472 14.625 19.9615 14.625 19.5C14.625 19.0385 14.469 18.6528 14.157 18.343C13.845 18.0332 13.4593 17.8772 13 17.875C12.5407 17.8728 12.155 18.0288 11.843 18.343C11.531 18.6572 11.375 19.0428 11.375 19.5C11.375 19.9572 11.531 20.3434 11.843 20.6586C12.155 20.9739 12.5407 21.1293 13 21.125C13.4593 21.1207 13.8455 20.9647 14.1586 20.657ZM14.1586 27.157C14.4695 26.8472 14.625 26.4615 14.625 26C14.625 25.5385 14.469 25.1528 14.157 24.843C13.845 24.5332 13.4593 24.3772 13 24.375C12.5407 24.3728 12.155 24.5288 11.843 24.843C11.531 25.1572 11.375 25.5428 11.375 26C11.375 26.4572 11.531 26.8434 11.843 27.1586C12.155 27.4739 12.5407 27.6293 13 27.625C13.4593 27.6207 13.8455 27.4647 14.1586 27.157ZM8.125 34.125C7.23125 34.125 6.46642 33.807 5.8305 33.1711C5.19458 32.5352 4.87608 31.7698 4.875 30.875V8.125C4.875 7.23125 5.1935 6.46642 5.8305 5.8305C6.4675 5.19458 7.23233 4.87608 8.125 4.875H26L34.125 13V30.875C34.125 31.7688 33.807 32.5341 33.1711 33.1711C32.5352 33.8081 31.7698 34.1261 30.875 34.125H8.125ZM8.125 30.875H30.875V14.625H24.375V8.125H8.125V30.875Z" fill="#6366F1"/>
<path d="M29.4316 19.6946C29.2121 19.9213 28.9991 20.1412 28.9926 20.3612C28.9733 20.5745 29.1927 20.7945 29.3993 21.0011C29.7091 21.3344 30.0125 21.6344 29.9996 21.961C29.9867 22.2876 29.6575 22.6276 29.3283 22.9608L26.6624 25.7205L25.7458 24.7739L28.4892 21.9476L27.8695 21.3077L26.9529 22.2476L24.5323 19.748L27.011 17.195C27.2627 16.935 27.6823 16.935 27.9211 17.195L29.4316 18.7548C29.6833 19.0014 29.6833 19.4347 29.4316 19.6946ZM18 26.5003L24.1709 20.1212L26.5914 22.6209L20.4206 29H18V26.5003Z" fill="#6366F1"/>
</svg>
