<svg width="48" height="48" viewBox="0 0 48 48" fill="none" xmlns="http://www.w3.org/2000/svg">
<path d="M24 4V12C24 13.6667 24.5833 15.0833 25.75 16.25C26.9167 17.4167 28.3333 18 30 18H38V40C38 41.1 37.6087 42.042 36.826 42.826C36.0433 43.61 35.1013 44.0013 34 44H14C12.9 44 11.9587 43.6087 11.176 42.826C10.3933 42.0433 10.0013 41.1013 10 40V8C10 6.9 10.392 5.95867 11.176 5.176C11.96 4.39333 12.9013 4.00133 14 4H24ZM28 4L38 14H30C29.4333 14 28.9587 13.808 28.576 13.424C28.1933 13.04 28.0013 12.5653 28 12V4ZM20 38H24C24.5667 38 25.042 37.808 25.426 37.424C25.81 37.04 26.0013 36.5653 26 36C25.9987 35.4347 25.8067 34.96 25.424 34.576C25.0413 34.192 24.5667 34 24 34H20C19.4333 34 18.9587 34.192 18.576 34.576C18.1933 34.96 18.0013 35.4347 18 36C17.9987 36.5653 18.1907 37.0407 18.576 37.426C18.9613 37.8113 19.436 38.0027 20 38ZM20 30H28C28.5667 30 29.042 29.808 29.426 29.424C29.81 29.04 30.0013 28.5653 30 28C29.9987 27.4347 29.8067 26.96 29.424 26.576C29.0413 26.192 28.5667 26 28 26H20C19.4333 26 18.9587 26.192 18.576 26.576C18.1933 26.96 18.0013 27.4347 18 28C17.9987 28.5653 18.1907 29.0407 18.576 29.426C18.9613 29.8113 19.436 30.0027 20 30Z" fill="#6366F1"/>
</svg>
