<svg width="33" height="33" viewBox="0 0 33 33" fill="none" xmlns="http://www.w3.org/2000/svg">
<path d="M13.4062 28.6687C15.8537 27.7062 15.3175 25.0525 14.08 23.375C12.8562 21.6562 11.165 20.4737 9.46 19.3325C8.24323 18.5661 7.15699 17.6098 6.2425 16.5C5.8575 16.0462 5.07375 15.2075 5.87125 15.0425C6.6825 14.8775 8.085 15.675 8.8 15.9775C10.0512 16.5 11.2887 17.105 12.4437 17.82L13.8325 15.4825C11.6875 14.0662 8.9375 12.815 6.38 12.4437C4.9225 12.2237 3.3825 12.5262 2.8875 14.1075C2.4475 15.4687 3.14875 16.8437 3.94625 17.9162C5.83 20.4325 8.75875 21.6425 10.945 23.815C11.4125 24.2687 11.9762 24.805 12.2512 25.4375C12.54 26.0425 12.4712 26.0837 11.825 26.0837C10.12 26.0837 7.98875 24.75 6.6 23.87L5.21125 26.2075C7.315 27.5 10.835 29.5212 13.4062 28.6687ZM28.655 7.21874C28.9575 6.91624 28.9575 6.42124 28.655 6.13249L26.8675 4.34499C26.7238 4.20555 26.5315 4.12756 26.3312 4.12756C26.131 4.12756 25.9387 4.20555 25.795 4.34499L24.3925 5.74749L27.2525 8.60749M15.125 15.015V17.875H17.985L26.4412 9.41874L23.5812 6.55874L15.125 15.015Z" fill="#6366F1"/>
</svg>
