<svg width="16" height="16" viewBox="0 0 16 16" fill="none" xmlns="http://www.w3.org/2000/svg">
<path d="M10.78 1C10.6813 0.999696 10.5835 1.01888 10.4922 1.05646C10.4009 1.09405 10.3179 1.14928 10.248 1.219L8.86 2.609C8.71955 2.74963 8.64066 2.94025 8.64066 3.139C8.64066 3.33775 8.71955 3.52838 8.86 3.669L9.024 3.832L6.823 6.032C6.233 5.708 5.59 5.528 4.956 5.607C4.06652 5.72579 3.24168 6.13663 2.611 6.775C2.47055 6.91563 2.39166 7.10625 2.39166 7.305C2.39166 7.50375 2.47055 7.69438 2.611 7.835L4.857 10.081L1.221 13.717C1.15116 13.7867 1.09574 13.8694 1.05793 13.9606C1.02012 14.0517 1.00066 14.1494 1.00066 14.248C1.00066 14.3467 1.02012 14.4443 1.05793 14.5355C1.09574 14.6266 1.15116 14.7093 1.221 14.779C1.29067 14.8488 1.37343 14.9043 1.46455 14.9421C1.55567 14.9799 1.65335 14.9993 1.752 14.9993C1.85065 14.9993 1.94833 14.9799 2.03945 14.9421C2.13057 14.9043 2.21333 14.8488 2.283 14.779L5.919 11.143L8.165 13.389C8.30563 13.5295 8.49625 13.6083 8.695 13.6083C8.89375 13.6083 9.08438 13.5295 9.225 13.389C9.86338 12.7583 10.2742 11.9335 10.393 11.044C10.472 10.409 10.293 9.764 9.967 9.174L12.166 6.976L12.33 7.14C12.4706 7.28045 12.6612 7.35934 12.86 7.35934C13.0588 7.35934 13.2494 7.28045 13.39 7.14L14.78 5.751C14.9205 5.61038 14.9993 5.41975 14.9993 5.221C14.9993 5.02225 14.9205 4.83163 14.78 4.691L11.308 1.219C11.1678 1.07917 10.978 1.00044 10.78 1Z" fill="#6366F1"/>
</svg>
