<svg width="48" height="48" viewBox="0 0 48 48" fill="none" xmlns="http://www.w3.org/2000/svg">
<path fill-rule="evenodd" clip-rule="evenodd" d="M15.868 4H32.132C33.904 4 35.432 4 36.656 4.164C37.966 4.34 39.224 4.738 40.242 5.758C41.262 6.778 41.66 8.034 41.836 9.344C42 10.568 42 12.096 42 13.868V15.9C42 16.4304 41.7893 16.9391 41.4142 17.3142C41.0391 17.6893 40.5304 17.9 40 17.9C39.4696 17.9 38.9609 17.6893 38.5858 17.3142C38.2107 16.9391 38 16.4304 38 15.9V14C38 12.058 37.996 10.802 37.872 9.878C37.754 9.01 37.566 8.738 37.414 8.586C37.262 8.434 36.99 8.246 36.122 8.128C35.2 8.004 33.942 8 32 8H26V42C26 42.5304 25.7893 43.0391 25.4142 43.4142C25.0391 43.7893 24.5304 44 24 44C23.4696 44 22.9609 43.7893 22.5858 43.4142C22.2107 43.0391 22 42.5304 22 42V8H16C14.058 8 12.802 8.004 11.878 8.128C11.01 8.246 10.738 8.434 10.586 8.586C10.434 8.738 10.246 9.01 10.128 9.878C10.004 10.8 10 12.058 10 14V15.9C10 16.4304 9.78929 16.9391 9.41421 17.3142C9.03914 17.6893 8.53043 17.9 8 17.9C7.46957 17.9 6.96086 17.6893 6.58579 17.3142C6.21071 16.9391 6 16.4304 6 15.9V13.868C6 12.096 6 10.568 6.164 9.344C6.34 8.034 6.738 6.776 7.758 5.758C8.778 4.738 10.034 4.34 11.344 4.164C12.568 4 14.096 4 15.868 4Z" fill="#6366F1"/>
<path d="M14 42H34" stroke="#6366F1" stroke-width="4" stroke-linecap="round" stroke-linejoin="round"/>
</svg>
