<svg width="31" height="31" viewBox="0 0 31 31" fill="none" xmlns="http://www.w3.org/2000/svg">
<path d="M6.78125 15.1771H11.3021M6.78125 19.375H14.5312M6.78125 23.5729H14.5312M16.4687 5.48958H20.9896M17.4375 9.6875H24.2187M21.6354 13.8854H24.2187M22.2812 20.3437H26.1562C26.6701 20.3437 27.1629 20.1396 27.5263 19.7763C27.8896 19.4129 28.0937 18.9201 28.0937 18.4062V6.93754C28.0936 6.42404 27.8897 5.93159 27.5267 5.56837L23.4941 1.53579C23.1309 1.17281 22.6385 0.96886 22.125 0.96875H14.5312C14.0174 0.96875 13.5246 1.17288 13.1612 1.53623C12.7979 1.89958 12.5937 2.39239 12.5937 2.90625V6.78125M6.78125 1.61458L8.71875 3.55208H5.48958C5.14701 3.55208 4.81847 3.68817 4.57624 3.9304C4.334 4.17264 4.19792 4.50118 4.19792 4.84375V6.78125M24.2187 29.3854L22.2812 27.4479H25.5104C25.853 27.4479 26.1815 27.3118 26.4238 27.0696C26.666 26.8274 26.8021 26.4988 26.8021 26.1562V24.2187M18.4062 28.0937C18.4062 28.6076 18.2021 29.1004 17.8388 29.4638C17.4754 29.8271 16.9826 30.0312 16.4687 30.0312H4.84375C4.32989 30.0312 3.83708 29.8271 3.47373 29.4638C3.11038 29.1004 2.90625 28.6076 2.90625 28.0937V12.5937C2.90625 12.0799 3.11038 11.5871 3.47373 11.2237C3.83708 10.8604 4.32989 10.6562 4.84375 10.6562H12.4375C12.951 10.6564 13.4434 10.8603 13.8066 11.2233L17.8392 15.2559C18.2022 15.6191 18.4061 16.1115 18.4062 16.625V28.0937Z" stroke="#6366F1" stroke-width="1.5" stroke-linecap="round" stroke-linejoin="round"/>
</svg>
