<svg width="51" height="51" viewBox="0 0 51 51" fill="none" xmlns="http://www.w3.org/2000/svg">
<path d="M31.875 17H31.8963M6.375 12.75C6.375 11.0592 7.04665 9.43774 8.24219 8.24219C9.43774 7.04665 11.0592 6.375 12.75 6.375H38.25C39.9408 6.375 41.5623 7.04665 42.7578 8.24219C43.9534 9.43774 44.625 11.0592 44.625 12.75V38.25C44.625 39.9408 43.9534 41.5623 42.7578 42.7578C41.5623 43.9534 39.9408 44.625 38.25 44.625H12.75C11.0592 44.625 9.43774 43.9534 8.24219 42.7578C7.04665 41.5623 6.375 39.9408 6.375 38.25V12.75Z" stroke="#6366F1" stroke-width="4" stroke-linecap="round" stroke-linejoin="round"/>
<path d="M6.375 34L17 23.375C18.972 21.4774 21.403 21.4774 23.375 23.375L34 34" stroke="#6366F1" stroke-width="4" stroke-linecap="round" stroke-linejoin="round"/>
<path d="M29.75 29.75L31.875 27.625C33.847 25.7274 36.278 25.7274 38.25 27.625L44.625 34" stroke="#6366F1" stroke-width="4" stroke-linecap="round" stroke-linejoin="round"/>
</svg>
